<svg xmlns="http://www.w3.org/2000/svg" version="1.1" viewBox="0.32819557189941406 1.1476271152496338 522.0191650390625 436.180908203125" width="523.00" height="438.00">
<g stroke-width="2.00" fill="none" stroke-linecap="butt">
<path stroke="#97c3db" d="&#10;  M 252.52 7.40&#10;  Q 245.51 10.53 235.25 17.53&#10;  Q 215.23 31.19 201.72 47.48&#10;  Q 191.06 60.34 186.81 66.47"/>
<path stroke="#5699ca" d="&#10;  M 186.81 66.47&#10;  C 180.58 71.87 175.16 74.27 172.19 64.19&#10;  C 168.65 52.20 168.85 41.54 167.84 24.95&#10;  Q 167.35 17.04 163.06 7.21"/>
<path stroke="#8b8fa1" d="&#10;  M 334.37 64.57&#10;  Q 338.49 70.79 342.20 76.98&#10;  Q 371.03 125.01 375.69 181.00&#10;  Q 376.59 191.92 376.44 197.34"/>
<path stroke="#8b8796" d="&#10;  M 368.62 197.96&#10;  Q 368.23 169.76 361.65 142.82&#10;  Q 351.46 101.16 326.25 66.45"/>
<path stroke="#97c3db" d="&#10;  M 326.25 66.45&#10;  C 318.00 54.34 307.54 43.48 296.39 33.76&#10;  C 286.02 24.70 273.84 16.85 262.55 11.47&#10;  Q 261.31 10.88 259.74 11.69&#10;  C 238.38 22.64 219.38 37.74 204.06 56.44&#10;  Q 168.00 100.48 158.09 157.53&#10;  Q 156.34 167.66 155.22 177.99"/>
<path stroke="#8b8796" d="&#10;  M 155.22 177.99&#10;  Q 153.75 186.87 154.14 196.62"/>
<path stroke="#8b8fa1" d="&#10;  M 145.69 197.76&#10;  L 146.65 181.54"/>
<path stroke="#a6bcd6" d="&#10;  M 186.81 66.47&#10;  C 163.41 99.89 149.78 141.28 146.65 181.54"/>
<path stroke="#4a6590" d="&#10;  M 146.65 181.54&#10;  Q 109.74 195.56 71.22 186.73"/>
<path stroke="#4b72a1" d="&#10;  M 71.22 186.73&#10;  L 59.84 182.84"/>
<path stroke="#718ac2" d="&#10;  M 59.84 182.84&#10;  C 50.88 170.73 48.91 158.37 48.38 143.16&#10;  Q 47.73 124.31 47.11 105.46&#10;  C 46.91 99.28 46.10 91.87 45.48 85.12"/>
<path stroke="#357fa9" d="&#10;  M 502.33 128.20&#10;  Q 501.66 128.66 501.37 128.15&#10;  Q 490.79 109.28 474.95 95.45"/>
<path stroke="#347298" d="&#10;  M 474.95 95.45&#10;  C 449.37 72.20 412.82 60.94 378.75 60.46&#10;  Q 355.55 60.14 334.37 64.57"/>
<path stroke="#90c9de" d="&#10;  M 334.37 64.57&#10;  Q 317.99 41.10 295.30 23.21&#10;  Q 283.60 13.99 270.39 7.65"/>
<path stroke="#3b648a" d="&#10;  M 326.25 66.45&#10;  Q 289.98 74.54 256.67 94.45&#10;  Q 237.78 105.74 223.50 117.11"/>
<path stroke="#3b79a5" d="&#10;  M 168.69 162.21&#10;  Q 167.51 162.37 167.67 163.62"/>
<path stroke="#3b648a" d="&#10;  M 167.67 163.62&#10;  Q 166.18 164.95 165.71 166.99"/>
<path stroke="#3b6c94" d="&#10;  M 165.71 166.99&#10;  Q 164.83 167.54 164.94 168.49"/>
<path stroke="#3b6c94" d="&#10;  M 164.67 168.96&#10;  Q 164.41 168.72 164.18 169.22&#10;  Q 164.03 169.53 164.28 169.79"/>
<path stroke="#3b648a" d="&#10;  M 161.67 175.40&#10;  Q 158.95 177.80 155.22 177.99"/>
<path stroke="#30456b" d="&#10;  M 474.95 95.45&#10;  C 475.95 108.20 477.69 123.77 478.45 130.88&#10;  C 481.07 155.37 480.81 180.56 484.29 205.36"/>
<path stroke="#576b9e" d="&#10;  M 59.84 182.84&#10;  Q 48.43 178.55 38.96 171.31&#10;  Q 20.25 157.03 20.27 133.40&#10;  Q 20.27 132.47 20.79 130.22&#10;  Q 21.21 128.47 20.81 126.91"/>
<path stroke="#30456b" d="&#10;  M 71.22 186.73&#10;  L 71.14 215.11&#10;  Q 71.14 215.60 70.65 215.65&#10;  L 67.96 215.96"/>
<path stroke="#30456b" d="&#10;  M 42.21 233.79&#10;  L 39.79 234.15&#10;  Q 39.35 234.22 39.50 234.64&#10;  Q 46.03 253.34 46.48 271.38&#10;  Q 47.27 303.82 42.98 340.24"/>
<path stroke="#69649a" d="&#10;  M 42.98 340.24&#10;  Q 35.80 333.33 33.08 329.66&#10;  Q 28.89 324.00 25.70 321.31"/>
<path stroke="#c2abce" stroke-opacity="0.980" d="&#10;  M 148.28 241.10&#10;  Q 147.40 241.31 146.50 241.21"/>
<path stroke="#565e8d" d="&#10;  M 468.61 259.60&#10;  Q 452.31 252.62 434.59 251.23"/>
<path stroke="#5f5b8b" d="&#10;  M 434.59 251.23&#10;  Q 423.67 249.99 411.25 250.73&#10;  Q 392.75 251.85 375.98 259.19"/>
<path stroke="#888c9e" stroke-opacity="0.980" d="&#10;  M 375.98 259.19&#10;  L 376.71 240.11"/>
<path stroke="#b8afcf" stroke-opacity="0.980" d="&#10;  M 369.71 240.13&#10;  Q 369.73 240.50 369.26 240.78"/>
<path stroke="#c8a8cc" stroke-opacity="0.980" d="&#10;  M 196.57 373.29&#10;  Q 203.28 381.97 207.57 386.67&#10;  Q 210.37 389.73 217.42 396.63&#10;  Q 217.46 396.68 221.61 400.24&#10;  Q 224.03 402.32 225.72 405.00"/>
<path stroke="#c8a8cc" stroke-opacity="0.980" d="&#10;  M 223.96 411.44&#10;  Q 216.07 406.64 209.79 399.96&#10;  Q 198.52 388.00 188.76 374.86"/>
<path stroke="#b8afcf" stroke-opacity="0.980" d="&#10;  M 375.98 259.19&#10;  Q 373.88 280.63 368.26 302.02"/>
<path stroke="#c2abce" stroke-opacity="0.980" d="&#10;  M 368.26 302.02&#10;  C 360.00 330.92 348.70 356.13 331.25 379.25&#10;  Q 329.98 380.92 328.09 382.37"/>
<path stroke="#c8a8cc" stroke-opacity="0.980" d="&#10;  M 328.09 382.37&#10;  Q 329.41 376.51 326.74 372.21"/>
<path stroke="#c2abce" stroke-opacity="0.980" d="&#10;  M 326.74 372.21&#10;  Q 332.31 364.88 336.18 358.40&#10;  Q 361.98 315.16 367.29 264.11"/>
<path stroke="#5f5380" d="&#10;  M 369.21 240.08&#10;  L 369.26 240.78"/>
<path stroke="#888493" stroke-opacity="0.980" d="&#10;  M 369.26 240.78&#10;  L 367.29 264.11"/>
<path stroke="#694f7f" d="&#10;  M 367.29 264.11&#10;  Q 362.31 265.41 358.59 268.87"/>
<path stroke="#a873b7" d="&#10;  M 326.74 372.21&#10;  Q 325.31 374.28 323.60 375.96&#10;  A 0.31 0.22 -17.2 0 1 323.10 375.80&#10;  Q 323.92 374.34 325.01 373.22&#10;  Q 325.50 372.70 325.61 372.26&#10;  Q 325.68 371.94 325.49 372.21&#10;  L 325.28 372.51&#10;  Q 325.00 372.92 324.58 372.67&#10;  Q 315.93 367.57 311.66 361.88&#10;  C 304.07 351.76 299.12 340.84 293.93 328.96"/>
<path stroke="#576b9e" d="&#10;  M 499.26 317.47&#10;  Q 502.26 306.99 501.00 296.31&#10;  C 498.88 278.45 483.87 266.44 468.61 259.60"/>
<path stroke="#30456b" d="&#10;  M 468.61 259.60&#10;  Q 471.64 245.63 479.56 233.91"/>
<path stroke="#694f7f" d="&#10;  M 311.34 315.56&#10;  L 293.93 328.96"/>
<path stroke="#6f4c7d" d="&#10;  M 293.93 328.96&#10;  Q 279.96 338.42 267.87 345.37&#10;  Q 234.61 364.48 196.57 373.29"/>
<path stroke="#888493" stroke-opacity="0.980" d="&#10;  M 196.57 373.29&#10;  Q 186.18 357.66 183.43 353.06&#10;  Q 173.51 336.45 165.69 311.99&#10;  Q 158.57 289.69 155.34 264.17&#10;  Q 154.88 260.52 154.52 252.39&#10;  Q 154.26 246.39 153.30 240.68"/>
<path stroke="#695789" d="&#10;  M 146.56 240.72&#10;  L 146.50 241.21"/>
<path stroke="#888c9e" stroke-opacity="0.980" d="&#10;  M 146.50 241.21&#10;  Q 145.80 241.41 145.81 242.32&#10;  C 145.87 251.47 147.07 261.21 148.44 271.22&#10;  Q 154.07 312.35 172.26 348.48&#10;  Q 178.85 361.56 188.76 374.86"/>
<path stroke="#6f5488" d="&#10;  M 188.76 374.86&#10;  Q 186.88 375.79 184.62 376.15&#10;  Q 157.24 380.51 130.62 378.19"/>
<path stroke="#695789" d="&#10;  M 130.62 378.19&#10;  Q 115.09 376.53 103.13 373.36&#10;  Q 78.45 366.83 56.47 351.54&#10;  Q 49.25 346.51 42.98 340.24"/>
<path stroke="#a873b7" d="&#10;  M 130.62 378.19&#10;  Q 122.84 381.96 115.09 385.43&#10;  Q 104.80 390.05 93.54 399.80"/>
<path stroke="#8680bd" d="&#10;  M 434.59 251.23&#10;  C 444.74 260.91 448.68 271.28 452.13 284.05&#10;  C 455.79 297.61 458.97 310.49 461.98 324.99&#10;  Q 465.87 343.72 470.03 362.60"/>
<path stroke="#9879ba" d="&#10;  M 397.49 418.12&#10;  Q 391.89 398.83 385.94 380.06&#10;  C 382.38 368.81 378.11 357.59 368.29 350.26&#10;  C 361.15 344.94 356.40 341.96 359.74 331.87&#10;  Q 364.63 317.11 368.26 302.02"/>
<path stroke="#a873b7" d="&#10;  M 327.36 382.80&#10;  Q 328.43 382.42 328.09 382.37"/>
<path stroke="#4f9ecd" d="&#10;  M 296.70 209.87&#10;  C 284.30 207.71 270.56 204.35 259.39 203.46&#10;  C 249.19 202.66 238.76 203.39 228.51 203.70"/>
<path stroke="#7a87c0" d="&#10;  M 289.60 242.69&#10;  L 228.56 236.28"/>
</g>
<path fill="#46a0ce" d="&#10;  M 252.52 7.40&#10;  Q 245.51 10.53 235.25 17.53&#10;  Q 215.23 31.19 201.72 47.48&#10;  Q 191.06 60.34 186.81 66.47&#10;  C 180.58 71.87 175.16 74.27 172.19 64.19&#10;  C 168.65 52.20 168.85 41.54 167.84 24.95&#10;  Q 167.35 17.04 163.06 7.21&#10;  Q 197.18 -1.72 232.00 2.51&#10;  Q 242.52 3.79 252.52 7.40&#10;  Z"/>
<path fill="#39abd5" d="&#10;  M 502.33 128.20&#10;  Q 501.66 128.66 501.37 128.15&#10;  Q 490.79 109.28 474.95 95.45&#10;  C 449.37 72.20 412.82 60.94 378.75 60.46&#10;  Q 355.55 60.14 334.37 64.57&#10;  Q 317.99 41.10 295.30 23.21&#10;  Q 283.60 13.99 270.39 7.65&#10;  Q 277.92 4.87 284.23 3.69&#10;  Q 300.17 0.69 316.76 1.23&#10;  Q 366.10 2.84 409.14 26.63&#10;  Q 463.14 56.47 493.76 110.25&#10;  Q 498.68 118.90 502.33 128.20&#10;  Z"/>
<path fill="#6591c5" d="&#10;  M 163.06 7.21&#10;  Q 167.35 17.04 167.84 24.95&#10;  C 168.85 41.54 168.65 52.20 172.19 64.19&#10;  C 175.16 74.27 180.58 71.87 186.81 66.47&#10;  C 163.41 99.89 149.78 141.28 146.65 181.54&#10;  Q 109.74 195.56 71.22 186.73&#10;  L 59.84 182.84&#10;  C 50.88 170.73 48.91 158.37 48.38 143.16&#10;  Q 47.73 124.31 47.11 105.46&#10;  C 46.91 99.28 46.10 91.87 45.48 85.12&#10;  C 74.57 46.90 116.38 18.83 163.06 7.21&#10;  Z"/>
<path fill="#e7e6e7" d="&#10;  M 252.52 7.40&#10;  Q 256.85 9.53 258.50 9.59&#10;  Q 262.10 9.74 270.39 7.65&#10;  Q 283.60 13.99 295.30 23.21&#10;  Q 317.99 41.10 334.37 64.57&#10;  Q 338.49 70.79 342.20 76.98&#10;  Q 371.03 125.01 375.69 181.00&#10;  Q 376.59 191.92 376.44 197.34&#10;  L 368.62 197.96&#10;  Q 368.23 169.76 361.65 142.82&#10;  Q 351.46 101.16 326.25 66.45&#10;  C 318.00 54.34 307.54 43.48 296.39 33.76&#10;  C 286.02 24.70 273.84 16.85 262.55 11.47&#10;  Q 261.31 10.88 259.74 11.69&#10;  C 238.38 22.64 219.38 37.74 204.06 56.44&#10;  Q 168.00 100.48 158.09 157.53&#10;  Q 156.34 167.66 155.22 177.99&#10;  Q 153.75 186.87 154.14 196.62&#10;  Q 153.01 198.51 151.29 199.22&#10;  Q 150.82 199.41 150.34 199.26&#10;  L 145.69 197.76&#10;  L 146.65 181.54&#10;  C 149.78 141.28 163.41 99.89 186.81 66.47&#10;  Q 191.06 60.34 201.72 47.48&#10;  Q 215.23 31.19 235.25 17.53&#10;  Q 245.51 10.53 252.52 7.40&#10;  Z"/>
<path fill="#46a0ce" d="&#10;  M 326.25 66.45&#10;  Q 289.98 74.54 256.67 94.45&#10;  Q 237.78 105.74 223.50 117.11&#10;  Q 210.63 122.38 198.61 130.60&#10;  Q 195.01 133.06 188.96 138.72&#10;  Q 176.50 150.38 168.69 162.21&#10;  Q 167.51 162.37 167.67 163.62&#10;  Q 166.18 164.95 165.71 166.99&#10;  Q 164.83 167.54 164.94 168.49&#10;  L 164.67 168.96&#10;  Q 164.41 168.72 164.18 169.22&#10;  Q 164.03 169.53 164.28 169.79&#10;  L 161.67 175.40&#10;  Q 158.95 177.80 155.22 177.99&#10;  Q 156.34 167.66 158.09 157.53&#10;  Q 168.00 100.48 204.06 56.44&#10;  C 219.38 37.74 238.38 22.64 259.74 11.69&#10;  Q 261.31 10.88 262.55 11.47&#10;  C 273.84 16.85 286.02 24.70 296.39 33.76&#10;  C 307.54 43.48 318.00 54.34 326.25 66.45&#10;  Z"/>
<path fill="#2f385a" d="&#10;  M 474.95 95.45&#10;  C 475.95 108.20 477.69 123.77 478.45 130.88&#10;  C 481.07 155.37 480.81 180.56 484.29 205.36&#10;  C 476.26 204.60 472.39 208.60 468.41 214.85&#10;  A 2.11 2.11 0.0 0 1 466.63 215.83&#10;  L 400.97 215.83&#10;  A 1.18 1.17 -7.8 0 1 399.84 214.98&#10;  C 397.69 207.48 394.17 201.83 386.43 199.34&#10;  Q 382.98 198.24 376.44 197.34&#10;  Q 376.59 191.92 375.69 181.00&#10;  Q 371.03 125.01 342.20 76.98&#10;  Q 338.49 70.79 334.37 64.57&#10;  Q 355.55 60.14 378.75 60.46&#10;  C 412.82 60.94 449.37 72.20 474.95 95.45&#10;  Z"/>
<path fill="#2f2845" d="&#10;  M 326.25 66.45&#10;  Q 351.46 101.16 361.65 142.82&#10;  Q 368.23 169.76 368.62 197.96&#10;  Q 366.89 193.77 365.68 189.47&#10;  Q 363.95 183.35 363.00 180.93&#10;  C 346.75 139.37 309.86 113.16 265.36 110.90&#10;  Q 243.80 109.80 223.50 117.11&#10;  Q 237.78 105.74 256.67 94.45&#10;  Q 289.98 74.54 326.25 66.45&#10;  Z"/>
<path fill="#7d83bf" d="&#10;  M 59.84 182.84&#10;  Q 48.43 178.55 38.96 171.31&#10;  Q 20.25 157.03 20.27 133.40&#10;  Q 20.27 132.47 20.79 130.22&#10;  Q 21.21 128.47 20.81 126.91&#10;  Q 30.41 104.57 45.48 85.12&#10;  C 46.10 91.87 46.91 99.28 47.11 105.46&#10;  Q 47.73 124.31 48.38 143.16&#10;  C 48.91 158.37 50.88 170.73 59.84 182.84&#10;  Z"/>
<path fill="#30527c" d="&#10;  M 502.33 128.20&#10;  Q 531.18 192.16 518.45 259.98&#10;  Q 513.17 288.09 499.26 317.47&#10;  Q 502.26 306.99 501.00 296.31&#10;  C 498.88 278.45 483.87 266.44 468.61 259.60&#10;  Q 471.64 245.63 479.56 233.91&#10;  C 498.96 236.85 503.29 208.86 484.29 205.36&#10;  C 480.81 180.56 481.07 155.37 478.45 130.88&#10;  C 477.69 123.77 475.95 108.20 474.95 95.45&#10;  Q 490.79 109.28 501.37 128.15&#10;  Q 501.66 128.66 502.33 128.20&#10;  Z"/>
<path fill="#30527c" d="&#10;  M 59.84 182.84&#10;  L 71.22 186.73&#10;  L 71.14 215.11&#10;  Q 71.14 215.60 70.65 215.65&#10;  L 67.96 215.96&#10;  L 55.35 215.80&#10;  A 1.75 1.72 -9.6 0 1 53.75 214.68&#10;  Q 50.65 206.39 41.52 205.50&#10;  C 34.89 204.84 28.07 208.89 26.87 215.55&#10;  Q 26.10 219.86 26.85 223.46&#10;  C 28.29 230.40 35.38 234.29 42.21 233.79&#10;  L 39.79 234.15&#10;  Q 39.35 234.22 39.50 234.64&#10;  Q 46.03 253.34 46.48 271.38&#10;  Q 47.27 303.82 42.98 340.24&#10;  Q 35.80 333.33 33.08 329.66&#10;  Q 28.89 324.00 25.70 321.31&#10;  Q 12.61 298.11 6.56 273.18&#10;  C -5.37 224.03 0.07 172.94 20.81 126.91&#10;  Q 21.21 128.47 20.79 130.22&#10;  Q 20.27 132.47 20.27 133.40&#10;  Q 20.25 157.03 38.96 171.31&#10;  Q 48.43 178.55 59.84 182.84&#10;  Z"/>
<path fill="#30527c" d="&#10;  M 168.69 162.21&#10;  Q 168.33 163.41 167.67 163.62&#10;  Q 167.51 162.37 168.69 162.21&#10;  Z"/>
<path fill="#2f2845" d="&#10;  M 167.67 163.62&#10;  Q 167.07 165.62 165.71 166.99&#10;  Q 166.18 164.95 167.67 163.62&#10;  Z"/>
<path fill="#2f385a" d="&#10;  M 165.71 166.99&#10;  Q 165.66 167.82 164.94 168.49&#10;  Q 164.83 167.54 165.71 166.99&#10;  Z"/>
<path fill="#2f385a" d="&#10;  M 164.67 168.96&#10;  Q 164.66 169.47 164.28 169.79&#10;  Q 164.03 169.53 164.18 169.22&#10;  Q 164.41 168.72 164.67 168.96&#10;  Z"/>
<path fill="#2f2845" d="&#10;  M 161.67 175.40&#10;  L 154.14 196.62&#10;  Q 153.75 186.87 155.22 177.99&#10;  Q 158.95 177.80 161.67 175.40&#10;  Z"/>
<path fill="#2f385a" d="&#10;  M 146.65 181.54&#10;  L 145.69 197.76&#10;  Q 143.45 198.18 140.88 198.59&#10;  C 131.66 200.06 125.36 204.87 123.43 214.33&#10;  A 1.62 1.61 5.5 0 1 121.86 215.62&#10;  L 67.96 215.96&#10;  L 70.65 215.65&#10;  Q 71.14 215.60 71.14 215.11&#10;  L 71.22 186.73&#10;  Q 109.74 195.56 146.65 181.54&#10;  Z"/>
<path fill="#39abd5" d="&#10;  M 296.70 209.87&#10;  C 284.30 207.71 270.56 204.35 259.39 203.46&#10;  C 249.19 202.66 238.76 203.39 228.51 203.70&#10;  A 36.43 35.92 -8.3 0 1 234.49 195.23&#10;  A 36.75 36.12 -7.6 0 1 266.27 183.94&#10;  A 36.73 36.13 -8.6 0 1 289.76 196.75&#10;  A 36.80 36.15 -7.3 0 1 296.70 209.87&#10;  Z"/>
<path fill="#6591c5" d="&#10;  M 296.70 209.87&#10;  A 36.75 36.15 -6.5 0 1 295.74 232.21&#10;  A 36.64 36.10 -7.8 0 1 289.60 242.69&#10;  L 228.56 236.28&#10;  A 36.73 36.11 -7.8 0 1 228.51 203.70&#10;  C 238.76 203.39 249.19 202.66 259.39 203.46&#10;  C 270.56 204.35 284.30 207.71 296.70 209.87&#10;  Z"/>
<path fill="#2f385a" d="&#10;  M 146.56 240.72&#10;  L 146.50 241.21&#10;  Q 145.80 241.41 145.81 242.32&#10;  C 145.87 251.47 147.07 261.21 148.44 271.22&#10;  Q 154.07 312.35 172.26 348.48&#10;  Q 178.85 361.56 188.76 374.86&#10;  Q 186.88 375.79 184.62 376.15&#10;  Q 157.24 380.51 130.62 378.19&#10;  Q 115.09 376.53 103.13 373.36&#10;  Q 78.45 366.83 56.47 351.54&#10;  Q 49.25 346.51 42.98 340.24&#10;  Q 47.27 303.82 46.48 271.38&#10;  Q 46.03 253.34 39.50 234.64&#10;  Q 39.35 234.22 39.79 234.15&#10;  L 42.21 233.79&#10;  C 47.18 233.33 50.72 230.92 52.95 226.61&#10;  Q 53.92 224.75 54.31 224.20&#10;  Q 54.60 223.79 55.08 223.64&#10;  Q 57.22 222.97 59.00 222.95&#10;  Q 86.67 222.66 115.75 222.99&#10;  Q 118.43 223.02 121.99 223.40&#10;  A 1.50 1.49 83.0 0 1 123.23 224.37&#10;  C 126.13 232.22 132.40 237.68 140.71 239.10&#10;  C 142.55 239.41 144.92 239.30 146.56 240.72&#10;  Z"/>
<path fill="#2f385a" d="&#10;  M 479.56 233.91&#10;  Q 471.64 245.63 468.61 259.60&#10;  Q 452.31 252.62 434.59 251.23&#10;  Q 423.67 249.99 411.25 250.73&#10;  Q 392.75 251.85 375.98 259.19&#10;  L 376.71 240.11&#10;  Q 384.21 239.39 390.54 236.03&#10;  Q 396.98 232.62 398.82 225.32&#10;  C 399.28 223.49 399.93 223.15 401.75 223.13&#10;  Q 428.06 222.94 458.25 223.26&#10;  Q 461.13 223.29 467.55 223.70&#10;  A 1.41 1.40 -8.5 0 1 468.77 224.60&#10;  Q 471.57 231.99 479.56 233.91&#10;  Z"/>
<path fill="#8e7dbb" d="&#10;  M 289.60 242.69&#10;  A 36.71 36.12 -9.7 0 1 271.65 254.40&#10;  A 36.76 36.13 -10.9 0 1 254.55 255.33&#10;  A 36.76 36.14 -8.7 0 1 228.56 236.28&#10;  L 289.60 242.69&#10;  Z"/>
<path fill="#2f2845" d="&#10;  M 369.21 240.08&#10;  L 369.26 240.78&#10;  L 367.29 264.11&#10;  Q 362.31 265.41 358.59 268.87&#10;  Q 363.73 258.09 364.76 254.00&#10;  Q 366.44 247.26 367.94 240.50&#10;  Q 368.16 239.49 369.21 240.08&#10;  Z"/>
<path fill="#8e7dbb" d="&#10;  M 369.71 240.13&#10;  Q 369.73 240.50 369.26 240.78&#10;  L 369.21 240.08&#10;  Q 369.58 240.16 369.71 240.13&#10;  Z"/>
<path fill="#e4e3e4" fill-opacity="0.961" d="&#10;  M 369.71 240.13&#10;  Q 373.64 241.33 376.71 240.11&#10;  L 375.98 259.19&#10;  Q 373.88 280.63 368.26 302.02&#10;  C 360.00 330.92 348.70 356.13 331.25 379.25&#10;  Q 329.98 380.92 328.09 382.37&#10;  Q 329.41 376.51 326.74 372.21&#10;  Q 332.31 364.88 336.18 358.40&#10;  Q 361.98 315.16 367.29 264.11&#10;  L 369.26 240.78&#10;  Q 369.73 240.50 369.71 240.13&#10;  Z"/>
<path fill="#2f2845" d="&#10;  M 311.34 315.56&#10;  L 293.93 328.96&#10;  Q 279.96 338.42 267.87 345.37&#10;  Q 234.61 364.48 196.57 373.29&#10;  Q 186.18 357.66 183.43 353.06&#10;  Q 173.51 336.45 165.69 311.99&#10;  Q 158.57 289.69 155.34 264.17&#10;  Q 154.88 260.52 154.52 252.39&#10;  Q 154.26 246.39 153.30 240.68&#10;  Q 154.30 240.28 155.22 242.79&#10;  Q 155.68 244.03 156.00 245.61&#10;  Q 159.40 262.10 167.65 275.13&#10;  Q 191.87 313.38 234.00 324.06&#10;  Q 273.37 334.05 311.34 315.56&#10;  Z"/>
<path fill="#a275b8" d="&#10;  M 148.28 241.10&#10;  Q 147.40 241.31 146.50 241.21&#10;  L 146.56 240.72&#10;  Q 147.34 241.22 148.28 241.10&#10;  Z"/>
<path fill="#e4e3e4" fill-opacity="0.961" d="&#10;  M 153.30 240.68&#10;  Q 154.26 246.39 154.52 252.39&#10;  Q 154.88 260.52 155.34 264.17&#10;  Q 158.57 289.69 165.69 311.99&#10;  Q 173.51 336.45 183.43 353.06&#10;  Q 186.18 357.66 196.57 373.29&#10;  Q 203.28 381.97 207.57 386.67&#10;  Q 210.37 389.73 217.42 396.63&#10;  Q 217.46 396.68 221.61 400.24&#10;  Q 224.03 402.32 225.72 405.00&#10;  Q 224.47 405.07 224.00 405.54&#10;  Q 223.79 405.75 223.46 407.00&#10;  Q 222.91 409.04 223.96 411.44&#10;  Q 216.07 406.64 209.79 399.96&#10;  Q 198.52 388.00 188.76 374.86&#10;  Q 178.85 361.56 172.26 348.48&#10;  Q 154.07 312.35 148.44 271.22&#10;  C 147.07 261.21 145.87 251.47 145.81 242.32&#10;  Q 145.80 241.41 146.50 241.21&#10;  Q 147.40 241.31 148.28 241.10&#10;  L 153.30 240.68&#10;  Z"/>
<path fill="#8e7dbb" d="&#10;  M 434.59 251.23&#10;  C 444.74 260.91 448.68 271.28 452.13 284.05&#10;  C 455.79 297.61 458.97 310.49 461.98 324.99&#10;  Q 465.87 343.72 470.03 362.60&#10;  Q 464.55 369.37 458.15 375.65&#10;  Q 433.37 399.93 402.48 415.74&#10;  Q 400.10 416.96 397.49 418.12&#10;  Q 391.89 398.83 385.94 380.06&#10;  C 382.38 368.81 378.11 357.59 368.29 350.26&#10;  C 361.15 344.94 356.40 341.96 359.74 331.87&#10;  Q 364.63 317.11 368.26 302.02&#10;  Q 373.88 280.63 375.98 259.19&#10;  Q 392.75 251.85 411.25 250.73&#10;  Q 423.67 249.99 434.59 251.23&#10;  Z"/>
<path fill="#7d83bf" d="&#10;  M 468.61 259.60&#10;  C 483.87 266.44 498.88 278.45 501.00 296.31&#10;  Q 502.26 306.99 499.26 317.47&#10;  Q 487.47 341.86 470.03 362.60&#10;  Q 465.87 343.72 461.98 324.99&#10;  C 458.97 310.49 455.79 297.61 452.13 284.05&#10;  C 448.68 271.28 444.74 260.91 434.59 251.23&#10;  Q 452.31 252.62 468.61 259.60&#10;  Z"/>
<path fill="#a275b8" d="&#10;  M 367.29 264.11&#10;  Q 361.98 315.16 336.18 358.40&#10;  Q 332.31 364.88 326.74 372.21&#10;  Q 325.31 374.28 323.60 375.96&#10;  A 0.31 0.22 -17.2 0 1 323.10 375.80&#10;  Q 323.92 374.34 325.01 373.22&#10;  Q 325.50 372.70 325.61 372.26&#10;  Q 325.68 371.94 325.49 372.21&#10;  L 325.28 372.51&#10;  Q 325.00 372.92 324.58 372.67&#10;  Q 315.93 367.57 311.66 361.88&#10;  C 304.07 351.76 299.12 340.84 293.93 328.96&#10;  L 311.34 315.56&#10;  Q 342.40 299.59 358.59 268.87&#10;  Q 362.31 265.41 367.29 264.11&#10;  Z"/>
<path fill="#a275b8" d="&#10;  M 397.49 418.12&#10;  Q 379.03 426.69 358.99 431.42&#10;  Q 346.59 434.35 334.65 435.80&#10;  Q 302.90 439.66 272.17 431.72&#10;  A 0.13 0.13 0.0 0 1 272.14 431.48&#10;  C 284.28 424.30 296.72 415.97 307.48 405.88&#10;  Q 318.14 395.88 325.11 387.61&#10;  Q 326.59 385.85 327.36 382.80&#10;  Q 328.43 382.42 328.09 382.37&#10;  Q 329.98 380.92 331.25 379.25&#10;  C 348.70 356.13 360.00 330.92 368.26 302.02&#10;  Q 364.63 317.11 359.74 331.87&#10;  C 356.40 341.96 361.15 344.94 368.29 350.26&#10;  C 378.11 357.59 382.38 368.81 385.94 380.06&#10;  Q 391.89 398.83 397.49 418.12&#10;  Z"/>
<path fill="#a275b8" d="&#10;  M 42.98 340.24&#10;  Q 49.25 346.51 56.47 351.54&#10;  Q 78.45 366.83 103.13 373.36&#10;  Q 115.09 376.53 130.62 378.19&#10;  Q 122.84 381.96 115.09 385.43&#10;  Q 104.80 390.05 93.54 399.80&#10;  C 88.73 396.37 83.43 392.60 79.41 388.91&#10;  C 75.53 385.36 71.53 382.44 67.66 378.76&#10;  Q 43.75 356.03 28.22 327.00&#10;  Q 26.87 324.47 25.70 321.31&#10;  Q 28.89 324.00 33.08 329.66&#10;  Q 35.80 333.33 42.98 340.24&#10;  Z"/>
<path fill="#ae70b5" d="&#10;  M 293.93 328.96&#10;  C 299.12 340.84 304.07 351.76 311.66 361.88&#10;  Q 315.93 367.57 324.58 372.67&#10;  Q 325.00 372.92 325.28 372.51&#10;  L 325.49 372.21&#10;  Q 325.68 371.94 325.61 372.26&#10;  Q 325.50 372.70 325.01 373.22&#10;  Q 323.92 374.34 323.10 375.80&#10;  A 0.31 0.22 -17.2 0 0 323.60 375.96&#10;  Q 325.31 374.28 326.74 372.21&#10;  Q 329.41 376.51 328.09 382.37&#10;  Q 328.43 382.42 327.36 382.80&#10;  C 327.87 381.09 325.70 380.18 324.68 379.55&#10;  A 2.66 2.65 -50.0 0 0 321.54 379.83&#10;  Q 318.94 382.13 314.43 387.20&#10;  Q 305.32 397.44 291.37 408.87&#10;  Q 278.83 419.15 263.80 426.54&#10;  Q 261.96 427.44 260.07 426.50&#10;  Q 246.08 419.56 237.28 412.71&#10;  Q 230.65 407.54 225.72 405.00&#10;  Q 224.03 402.32 221.61 400.24&#10;  Q 217.46 396.68 217.42 396.63&#10;  Q 210.37 389.73 207.57 386.67&#10;  Q 203.28 381.97 196.57 373.29&#10;  Q 234.61 364.48 267.87 345.37&#10;  Q 279.96 338.42 293.93 328.96&#10;  Z"/>
<path fill="#ae70b5" d="&#10;  M 223.96 411.44&#10;  Q 227.68 415.65 232.58 419.18&#10;  Q 241.31 425.47 251.27 431.11&#10;  Q 251.70 431.36 251.22 431.49&#10;  Q 231.03 436.97 212.00 437.30&#10;  C 169.77 438.05 127.95 423.97 93.54 399.80&#10;  Q 104.80 390.05 115.09 385.43&#10;  Q 122.84 381.96 130.62 378.19&#10;  Q 157.24 380.51 184.62 376.15&#10;  Q 186.88 375.79 188.76 374.86&#10;  Q 198.52 388.00 209.79 399.96&#10;  Q 216.07 406.64 223.96 411.44&#10;  Z"/>
</svg>